#!OML:ASF F:\VICON\USERDATA\INSTALL\rory3\rory3.ASF
:FULLY-SPECIFIED
:DEGREES
1724
root -0.982977 17.3132 -1.29234 24.928 -13.3197 -1.97556
lowerback 13.1212 -3.09934 -2.67925
upperback -3.31948 -4.58395 0.36289
thorax -10.7423 -1.99701 2.90977
lowerneck -14.0154 -3.56796 -11.6531
upperneck -12.8652 -1.8964 29.2507
head -0.540172 -0.829118 11.5406
rclavicle 7.43455e-014 2.54444e-014
rhumerus 76.3789 -24.2708 -85.5853
rradius 142.928
rwrist 27.6085
rhand -19.955 1.1662
rfingers 7.12502
rthumb 6.38321 -28.7176
lclavicle 7.43455e-014 2.54444e-014
lhumerus 21.6057 23.1046 89.9131
lradius 33.2786
lwrist -43.7308
lhand -51.8154 36.6665
lfingers 7.12502
lthumb -24.3305 65.1422
rfemur -37.6917 14.0596 17.7113
rtibia 21.5245
rfoot -11.7185 -0.532828
rtoes -27.9316
lfemur -37.6048 -2.06616 -9.71922
ltibia 32.0645
lfoot -14.0702 12.1952
ltoes -17.9918
1725
root -0.97218 17.3107 -1.28988 24.929 -13.03 -2.0042
lowerback 13.1366 -3.02984 -2.73332
upperback -3.31946 -4.49713 0.396015
thorax -10.7499 -1.95044 2.95845
lowerneck -13.7497 -3.86018 -11.8746
upperneck -13.2636 -2.1995 29.6866
head -0.602051 -1.01925 11.7438
rclavicle 1.63003e-014 1.43125e-014
rhumerus 75.8668 -23.9162 -86.1306
rradius 143.247
rwrist 27.4516
rhand -21.4731 1.46765
rfingers 7.12502
rthumb 4.91753 -28.4553
lclavicle 1.63003e-014 1.43125e-014
lhumerus 22.697 23.9214 91.0405
lradius 31.1607
lwrist -45.6187
lhand -52.0966 36.4278
lfingers 7.12502
lthumb -24.6001 64.8671
rfemur -37.6465 13.9605 17.7513
rtibia 21.4981
rfoot -11.597 -0.74718
rtoes -27.7674
lfemur -37.5994 -2.31662 -9.61391
ltibia 31.9351
lfoot -13.9198 12.3042
ltoes -19.4765
1726
root -0.961791 17.308 -1.28818 24.9164 -12.7012 -2.06372
lowerback 13.1342 -2.91354 -2.74187
upperback -3.31079 -4.33862 0.431758
thorax -10.7453 -1.87304 2.96766
lowerneck -13.5484 -4.17607 -11.9773
upperneck -13.622 -2.56185 29.9284
head -0.639588 -1.23358 11.8415
rclavicle -3.18055e-015 -6.36111e-015
rhumerus 75.2677 -23.7133 -86.574
rradius 143.611
rwrist 27.3741
rhand -22.7313 1.98418
rfingers 7.12502
rthumb 3.70255 -27.9634
lclavicle -3.18055e-015 -6.36111e-015
lhumerus 23.5585 24.2739 92.0058
lradius 29.2748
lwrist -46.9974
lhand -51.7379 34.9889
lfingers 7.12502
lthumb -24.2563 63.4746
rfemur -37.5996 13.882 17.8276
rtibia 21.4885
rfoot -11.5424 -0.960303
rtoes -27.8622
lfemur -37.5836 -2.61775 -9.4503
ltibia 31.7981
lfoot -13.7863 12.5226
ltoes -21.4331
1727
root -0.950905 17.3071 -1.28574 24.8697 -12.3978 -2.04619
lowerback 13.1777 -2.82847 -2.8106
upperback -3.28896 -4.23704 0.43229
thorax -10.7482 -1.81993 2.98708
lowerneck -13.5041 -4.49301 -12.0912
upperneck -13.9071 -2.9296 30.2491
head -0.622163 -1.43634 11.9689
rclavicle -3.1408e-014 0
rhumerus 74.6923 -23.4029 -87.0877
rradius 143.993
rwrist 27.1473
rhand -23.6039 2.61153
rfingers 7.12502
rthumb 2.85994 -27.349
lclavicle -3.1408e-014 0
lhumerus 24.4215 24.7709 92.9642
lradius 27.4276
lwrist -48.5035
lhand -51.3733 34.1822
lfingers 7.12502
lthumb -23.9067 62.7141
rfemur -37.5232 13.7783 17.8269
rtibia 21.4969
rfoot -11.5599 -1.15035
rtoes -28.0986
lfemur -37.5306 -2.91119 -9.38923
ltibia 31.6367
lfoot -13.7744 12.6042
ltoes -22.0585
1728
root -0.940195 17.307 -1.2825 24.8182 -12.1163 -1.99943
lowerback 13.2753 -2.79553 -2.94769
upperback -3.17408 -4.21335 0.458559
thorax -10.6672 -1.80178 3.0886
lowerneck -13.8385 -4.80559 -12.2177
upperneck -14.1253 -3.28308 30.6253
head -0.518929 -1.60203 12.1169
rclavicle 4.8901e-014 2.54444e-014
rhumerus 74.2342 -22.8116 -87.529
rradius 144.384
rwrist 26.9797
rhand -24.5888 3.22633
rfingers 7.12502
rthumb 1.90873 -26.7449
lclavicle 4.8901e-014 2.54444e-014
lhumerus 25.7375 25.9693 94.3371
lradius 25.442
lwrist -50.9619
lhand -51.0378 33.5621
lfingers 7.12502
lthumb -23.5849 62.1358
rfemur -37.4571 13.742 17.7568
rtibia 21.5324
rfoot -11.5349 -1.4072
rtoes -28.1129
lfemur -37.4644 -3.25946 -9.33225
ltibia 31.449
lfoot -13.9485 12.6339
ltoes -21.2997
1729
root -0.927918 17.307 -1.27803 24.8074 -11.7445 -1.98534
lowerback 13.3257 -2.78092 -2.99785
upperback -2.97607 -4.18941 0.540807
thorax -10.4675 -1.79192 3.19501
lowerneck -14.4602 -5.18876 -12.4283
upperneck -14.3324 -3.71264 30.9613
head -0.34409 -1.7782 12.2542
rclavicle -3.81667e-014 1.27222e-014
rhumerus 73.8558 -22.1614 -87.7654
rradius 144.639
rwrist 27.0707
rhand -26.101 3.91295
rfingers 7.12502
rthumb 0.448234 -26.0663
lclavicle -3.81667e-014 1.27222e-014
lhumerus 27.4774 27.599 96.2768
lradius 23.3912
lwrist -54.1385
lhand -50.745 32.4525
lfingers 7.12502
lthumb -23.304 61.062
rfemur -37.4184 13.6505 17.736
rtibia 21.5541
rfoot -11.472 -1.68218
rtoes -28.6431
lfemur -37.4485 -3.61206 -9.21266
ltibia 31.2452
lfoot -14.2029 12.4895
ltoes -19.7012
1730
root -0.916123 17.307 -1.27622 24.8235 -11.3591 -1.97358
lowerback 13.359 -2.71544 -3.00483
upperback -2.96154 -4.09442 0.630811
thorax -10.4702 -1.74271 3.27775
lowerneck -14.3041 -5.51889 -12.7856
upperneck -14.7456 -4.04623 31.2585
head -0.375607 -1.96786 12.4275
rclavicle 2.98177e-014 0
rhumerus 73.171 -21.6554 -87.7517
rradius 144.771
rwrist 27.2135
rhand -27.8685 4.69831
rfingers 7.12502
rthumb -1.25892 -25.2777
lclavicle 2.98177e-014 0
lhumerus 28.6553 28.8857 98.0129
lradius 21.6301
lwrist -57.0329
lhand -51.1008 33.1151
lfingers 7.12502
lthumb -23.6452 61.681
rfemur -37.4167 13.5474 17.7222
rtibia 21.5416
rfoot -11.3999 -1.91278
rtoes -28.7792
lfemur -37.4721 -3.90415 -9.10832
ltibia 31.0438
lfoot -14.3015 12.2898
ltoes -18.2553
1731
root -0.904535 17.3091 -1.27236 24.8223 -10.9608 -2.0218
lowerback 13.3999 -2.59123 -2.90449
upperback -3.10673 -3.91033 0.686506
thorax -10.672 -1.65127 3.25176
lowerneck -13.2261 -5.7656 -13.4479
upperneck -15.5438 -4.18976 31.8932
head -0.678068 -2.14686 12.8508
rclavicle -4.81059e-014 4.77083e-015
rhumerus 72.1877 -21.3571 -87.6285
rradius 144.858
rwrist 27.3786
rhand -29.7293 5.27065
rfingers 7.12502
rthumb -3.05602 -24.6872
lclavicle -4.81059e-014 4.77083e-015
lhumerus 29.4506 30.3014 99.8552
lradius 20.0697
lwrist -60.266
lhand -51.6268 34.0197
lfingers 7.12502
lthumb -24.1497 62.5195
rfemur -37.358 13.4399 17.7894
rtibia 21.5206
rfoot -11.3696 -2.133
rtoes -28.4013
lfemur -37.433 -4.18981 -8.96052
ltibia 30.8367
lfoot -14.2801 12.3116
ltoes -18.4622
1732
root -0.89353 17.3118 -1.26861 24.8237 -10.6367 -2.0543
lowerback 13.4084 -2.49613 -2.91343
upperback -3.18332 -3.78049 0.748271
thorax -10.767 -1.58268 3.29978
lowerneck -12.5152 -5.96442 -13.9925
upperneck -16.1995 -4.29706 32.4838
head -0.892867 -2.2784 13.2374
rclavicle 1.82882e-014 -7.95139e-016
rhumerus 71.2507 -20.8347 -87.576
rradius 144.943
rwrist 27.4554
rhand -31.644 6.12991
rfingers 7.12502
rthumb -4.90503 -23.7933
lclavicle 1.82882e-014 -7.95139e-016
lhumerus 30.771 32.4556 102.264
lradius 18.5335
lwrist -64.1918
lhand -51.6867 34.8526
lfingers 7.12502
lthumb -24.2071 63.3448
rfemur -37.338 13.4508 17.7834
rtibia 21.5129
rfoot -11.1675 -2.43239
rtoes -28.4553
lfemur -37.3993 -4.52303 -8.80524
ltibia 30.612
lfoot -14.0059 12.6196
ltoes -20.7225
1733
root -0.882684 17.3119 -1.26467 24.8839 -10.3491 -2.09173
lowerback 13.3673 -2.39146 -2.91062
upperback -3.2113 -3.63727 0.767705
thorax -10.7834 -1.51315 3.2871
lowerneck -12.7619 -6.31264 -13.903
upperneck -16.1046 -4.80766 32.4795
head -0.699754 -2.50974 13.148
rclavicle 2.14687e-014 1.90833e-014
rhumerus 70.4911 -20.3471 -87.6913
rradius 145.039
rwrist 27.0563
rhand -33.4056 7.81525
rfingers 7.12502
rthumb -6.60576 -22.0617
lclavicle 2.14687e-014 1.90833e-014
lhumerus 32.7151 35.1942 105.394
lradius 16.9967
lwrist -69.0101
lhand -51.8133 36.9435
lfingers 7.12502
lthumb -24.3286 65.4194
rfemur -37.4282 13.4845 17.7576
rtibia 21.5726
rfoot -10.9874 -2.7613
rtoes -28.8966
lfemur -37.4012 -4.82948 -8.6289
ltibia 30.3391
lfoot -13.8932 12.7033
ltoes -20.9725
1734
root -0.868831 17.3187 -1.25967 24.8909 -10.0084 -2.05791
lowerback 13.3914 -2.31043 -2.87382
upperback -3.19027 -3.52594 0.733116
thorax -10.7865 -1.46382 3.20543
lowerneck -13.2035 -6.68861 -13.6923
upperneck -15.9803 -5.3652 32.4286
head -0.464388 -2.75268 13.001
rclavicle 2.34566e-014 1.82882e-014
rhumerus 69.9126 -19.9179 -88.0034
rradius 145.161
rwrist 26.2268
rhand -35.0906 9.99358
rfingers 7.12502
rthumb -8.23225 -19.826
lclavicle 2.34566e-014 1.82882e-014
lhumerus 34.8711 37.7571 108.622
lradius 15.6165
lwrist -73.8499
lhand -51.9109 38.1681
lfingers 7.12502
lthumb -24.4221 66.6315
rfemur -37.3921 13.3856 17.6936
rtibia 21.6764
rfoot -11.1407 -2.92996
rtoes -27.7663
lfemur -37.3411 -5.16059 -8.5537
ltibia 30.0309
lfoot -13.8729 12.6311
ltoes -20.062
1735
root -0.854604 17.3252 -1.25451 24.8236 -9.67119 -1.88575
lowerback 13.4905 -2.28251 -3.04572
upperback -3.17373 -3.5197 0.749187
thorax -10.816 -1.4479 3.32345
lowerneck -13.2101 -6.92376 -13.8793
upperneck -16.2546 -5.60969 32.711
head -0.447341 -2.88651 13.1366
rclavicle 4.25399e-014 1.82882e-014
rhumerus 69.1794 -19.3103 -88.2003
rradius 145.281
rwrist 25.7309
rhand -36.9406 11.3759
rfingers 7.12502
rthumb -10.0174 -18.3657
lclavicle 4.25399e-014 1.82882e-014
lhumerus 35.516 37.6575 109.371
lradius 14.4177
lwrist -75.1679
lhand -51.6736 39.1301
lfingers 7.12502
lthumb -24.1946 67.624
rfemur -37.3169 13.243 17.4963
rtibia 21.8095
rfoot -11.3496 -3.10713
rtoes -26.3537
lfemur -37.2103 -5.51689 -8.65891
ltibia 29.7025
lfoot -13.796 12.6076
ltoes -20.0174
1736
root -0.840137 17.3255 -1.24965 24.8232 -9.32026 -1.82284
lowerback 13.5443 -2.23539 -3.11737
upperback -3.2748 -3.46468 0.834898
thorax -10.9559 -1.40799 3.45238
lowerneck -12.6708 -7.11081 -14.3133
upperneck -16.7253 -5.75426 33.0777
head -0.582963 -3.01348 13.3933
rclavicle 4.45278e-014 2.46493e-014
rhumerus 67.9739 -18.7386 -87.8965
rradius 145.232
rwrist 25.9764
rhand -39.0157 11.8499
rfingers 7.12502
rthumb -12.0188 -17.785
lclavicle 4.45278e-014 2.46493e-014
lhumerus 35.7613 37.6929 109.965
lradius 13.3501
lwrist -76.2541
lhand -51.4871 40.1488
lfingers 7.12502
lthumb -24.0158 68.6663
rfemur -37.3304 13.181 17.3864
rtibia 21.9192
rfoot -11.4048 -3.43326
rtoes -25.9819
lfemur -37.1392 -5.80347 -8.64648
ltibia 29.383
lfoot -13.7366 12.6126
ltoes -20.5293
1737
root -0.827646 17.3268 -1.24478 24.8784 -8.94825 -1.86495
lowerback 13.4995 -2.17013 -3.04776
upperback -3.34589 -3.35864 0.897458
thorax -11.0173 -1.35711 3.45839
lowerneck -12.1858 -7.33567 -14.7026
upperneck -17.1707 -5.96236 33.4745
head -0.683646 -3.1696 13.6465
rclavicle 4.81059e-014 -1.90833e-014
rhumerus 66.858 -18.012 -87.4842
rradius 145.072
rwrist 26.3284
rhand -40.9212 13.9827
rfingers 7.12502
rthumb -13.8557 -15.5358
lclavicle 4.81059e-014 -1.90833e-014
lhumerus 36.0246 37.5802 110.574
lradius 12.4087
lwrist -77.2427
lhand -51.4397 40.5099
lfingers 7.12502
lthumb -23.9703 69.0334
rfemur -37.3585 13.1899 17.3691
rtibia 21.9897
rfoot -11.421 -3.80405
rtoes -26.1408
lfemur -37.1353 -6.07356 -8.49664
ltibia 29.0965
lfoot -13.6273 12.7081
ltoes -21.2513
